<?xml version="1.0" encoding="UTF-8" standalone="no"?>
<!DOCTYPE svg PUBLIC "-//W3C//DTD SVG 1.1//EN" "http://www.w3.org/Graphics/SVG/1.1/DTD/svg11.dtd">
<svg width="100%" height="100%" viewBox="0 0 1500 1500" version="1.1" xmlns="http://www.w3.org/2000/svg" xmlns:xlink="http://www.w3.org/1999/xlink" xml:space="preserve" xmlns:serif="http://www.serif.com/" style="fill-rule:evenodd;clip-rule:evenodd;stroke-linejoin:round;stroke-miterlimit:2;">
    <g>
        <g transform="matrix(1.167483,0,0,1.167483,-334.061829,-23.615983)">
            <circle cx="695.65" cy="506.563" r="54.35"/>
        </g>
        <g transform="matrix(1.167483,0,0,1.167483,-334.061829,-149.521154)">
            <circle cx="695.65" cy="506.563" r="54.35"/>
        </g>
        <g transform="matrix(0.95326,0,0,0.95326,-321.849381,-40.156948)">
            <circle cx="695.65" cy="506.563" r="54.35"/>
        </g>
        <g transform="matrix(0.95326,0,0,0.95326,516.77132,-40.156948)">
            <circle cx="695.65" cy="506.563" r="54.35"/>
        </g>
        <g transform="matrix(0.95326,0,0,0.95326,-321.849381,84.707506)">
            <circle cx="695.65" cy="506.563" r="54.35"/>
        </g>
        <g transform="matrix(0.95326,0,0,0.95326,-321.849381,211.510264)">
            <circle cx="695.65" cy="506.563" r="54.35"/>
        </g>
        <g transform="matrix(0.95326,0,0,0.95326,-321.849381,336.695694)">
            <circle cx="695.65" cy="506.563" r="54.35"/>
        </g>
        <g transform="matrix(0.95326,0,0,0.95326,-321.849381,459.74087)">
            <circle cx="695.65" cy="506.563" r="54.35"/>
        </g>
        <g transform="matrix(0.440747,0,0,0.440747,-104.919769,720.770255)">
            <circle cx="695.65" cy="506.563" r="54.35"/>
        </g>
        <g transform="matrix(0.440747,0,0,0.440747,-104.919769,845.484852)">
            <circle cx="695.65" cy="506.563" r="54.35"/>
        </g>
        <g transform="matrix(0.440747,0,0,0.440747,-104.919769,967.418369)">
            <circle cx="695.65" cy="506.563" r="54.35"/>
        </g>
        <g transform="matrix(0.322341,0,0,0.322341,-22.550267,1148.993549)">
            <circle cx="695.65" cy="506.563" r="54.35"/>
        </g>
        <g transform="matrix(0.440747,0,0,0.440747,-104.919769,596.931514)">
            <circle cx="695.65" cy="506.563" r="54.35"/>
        </g>
        <g transform="matrix(0.440747,0,0,0.440747,-104.919769,472.034322)">
            <circle cx="695.65" cy="506.563" r="54.35"/>
        </g>
        <g transform="matrix(0.440747,0,0,0.440747,-104.919769,347.13713)">
            <circle cx="695.65" cy="506.563" r="54.35"/>
        </g>
        <g transform="matrix(0.440747,0,0,0.440747,-104.919769,222.239938)">
            <circle cx="695.65" cy="506.563" r="54.35"/>
        </g>
        <g transform="matrix(0.368457,0,0,0.368457,-54.631012,132.497453)">
            <circle cx="695.65" cy="506.563" r="54.35"/>
        </g>
        <g transform="matrix(0.234471,0,0,0.234471,38.576595,77.589704)">
            <circle cx="695.65" cy="506.563" r="54.35"/>
        </g>
        <g transform="matrix(0.95326,0,0,0.95326,-321.849381,584.109113)">
            <circle cx="695.65" cy="506.563" r="54.35"/>
        </g>
        <g transform="matrix(0.86112,0,0,0.86112,-258.704695,753.928288)">
            <circle cx="695.65" cy="506.563" r="54.35"/>
        </g>
        <g transform="matrix(0.661699,0,0,0.661699,-119.97688,975.159121)">
            <circle cx="695.65" cy="506.563" r="54.35"/>
        </g>
        <g transform="matrix(0.742714,0,0,0.742714,-175.980207,-56.775728)">
            <circle cx="695.65" cy="506.563" r="54.35"/>
        </g>
        <g transform="matrix(0.649235,0,0,0.649235,726.979194,-9.422749)">
            <circle cx="695.65" cy="506.563" r="54.35"/>
        </g>
        <g transform="matrix(0.594705,0,0,0.594705,625.831997,-104.368892)">
            <circle cx="695.65" cy="506.563" r="54.35"/>
        </g>
        <g transform="matrix(0.399957,0,0,0.399957,62.458134,1225.769703)">
            <circle cx="695.65" cy="506.563" r="54.35"/>
        </g>
        <g transform="matrix(0.399957,0,0,0.399957,198.278698,1225.769703)">
            <circle cx="695.65" cy="506.563" r="54.35"/>
        </g>
        <g transform="matrix(0.562686,0,0,0.562686,652.534763,659.478227)">
            <circle cx="695.65" cy="506.563" r="54.35"/>
        </g>
        <g transform="matrix(0.562686,0,0,0.562686,789.940092,534.580946)">
            <circle cx="695.65" cy="506.563" r="54.35"/>
        </g>
        <g transform="matrix(0.457989,0,0,0.457989,1001.837815,462.498844)">
            <circle cx="695.65" cy="506.563" r="54.35"/>
        </g>
        <g transform="matrix(0.457989,0,0,0.457989,1001.837815,337.427942)">
            <circle cx="695.65" cy="506.563" r="54.35"/>
        </g>
        <g transform="matrix(0.457989,0,0,0.457989,1001.837815,213.390695)">
            <circle cx="695.65" cy="506.563" r="54.35"/>
        </g>
        <g transform="matrix(0.437756,0,0,0.437756,595.868134,-148.747683)">
            <circle cx="695.65" cy="506.563" r="54.35"/>
        </g>
        <g transform="matrix(0.437756,0,0,0.437756,456.474788,-148.747683)">
            <circle cx="695.65" cy="506.563" r="54.35"/>
        </g>
        <g transform="matrix(0.461687,0,0,0.461687,18.953451,-38.936473)">
            <circle cx="695.65" cy="506.563" r="54.35"/>
        </g>
        <g transform="matrix(0.437756,0,0,0.437756,314.689155,-148.747683)">
            <circle cx="695.65" cy="506.563" r="54.35"/>
        </g>
        <g transform="matrix(0.310002,0,0,0.310002,263.676661,-82.846527)">
            <circle cx="695.65" cy="506.563" r="54.35"/>
        </g>
        <g transform="matrix(0.661699,0,0,0.661699,16.787484,975.159121)">
            <circle cx="695.65" cy="506.563" r="54.35"/>
        </g>
        <g transform="matrix(0.86112,0,0,0.86112,20.345205,-241.996136)">
            <circle cx="695.65" cy="506.563" r="54.35"/>
        </g>
        <g transform="matrix(0.86112,0,0,0.86112,162.961523,-241.996136)">
            <circle cx="695.65" cy="506.563" r="54.35"/>
        </g>
        <g transform="matrix(0.86112,0,0,0.86112,301.883415,-241.996136)">
            <circle cx="695.65" cy="506.563" r="54.35"/>
        </g>
        <g transform="matrix(0.814381,0,0,0.814381,-89.425984,777.604803)">
            <circle cx="695.65" cy="506.563" r="54.35"/>
        </g>
        <g transform="matrix(0.814381,0,0,0.814381,53.630457,531.183882)">
            <circle cx="695.65" cy="506.563" r="54.35"/>
        </g>
        <g transform="matrix(0.762967,0,0,0.762967,230.81825,558.228033)">
            <circle cx="695.65" cy="506.563" r="54.35"/>
        </g>
        <g transform="matrix(0.696753,0,0,0.696753,-5.153053,-158.032194)">
            <circle cx="695.65" cy="506.563" r="54.35"/>
        </g>
        <g transform="matrix(0.762967,0,0,0.762967,374.429055,558.228033)">
            <circle cx="695.65" cy="506.563" r="54.35"/>
        </g>
        <g transform="matrix(0.95326,0,0,0.95326,-185.037625,584.109113)">
            <circle cx="695.65" cy="506.563" r="54.35"/>
        </g>
        <g transform="matrix(0.993768,0,0,0.993768,351.219902,316.17604)">
            <circle cx="695.65" cy="506.563" r="54.35"/>
        </g>
        <g transform="matrix(1.063877,0,0,1.063877,-262.988261,404.706441)">
            <circle cx="695.65" cy="506.563" r="54.35"/>
        </g>
        <g transform="matrix(0.993768,0,0,0.993768,486.390625,193.192192)">
            <circle cx="695.65" cy="506.563" r="54.35"/>
        </g>
        <g transform="matrix(0.993768,0,0,0.993768,351.219902,-185.122121)">
            <circle cx="695.65" cy="506.563" r="54.35"/>
        </g>
        <g transform="matrix(1.014508,0,0,1.014508,-226.570062,-196.05156)">
            <circle cx="695.65" cy="506.563" r="54.35"/>
        </g>
        <g transform="matrix(1.167483,0,0,1.167483,229.275395,-149.521154)">
            <circle cx="695.65" cy="506.563" r="54.35"/>
        </g>
        <g transform="matrix(1.167483,0,0,1.167483,-334.061829,103.289187)">
            <circle cx="695.65" cy="506.563" r="54.35"/>
        </g>
        <g transform="matrix(1.167483,0,0,1.167483,229.275395,103.289187)">
            <circle cx="695.65" cy="506.563" r="54.35"/>
        </g>
        <g transform="matrix(1.105164,0,0,1.105164,411.099593,7.719458)">
            <circle cx="695.65" cy="506.563" r="54.35"/>
        </g>
        <g transform="matrix(1.167483,0,0,1.167483,-334.061829,227.194357)">
            <circle cx="695.65" cy="506.563" r="54.35"/>
        </g>
        <g transform="matrix(1.167483,0,0,1.167483,-194.312846,227.194357)">
            <circle cx="695.65" cy="506.563" r="54.35"/>
        </g>
        <g transform="matrix(1.167483,0,0,1.167483,-194.312846,-274.426324)">
            <circle cx="695.65" cy="506.563" r="54.35"/>
        </g>
        <g transform="matrix(1.167483,0,0,1.167483,-50.159975,-274.426324)">
            <circle cx="695.65" cy="506.563" r="54.35"/>
        </g>
        <g transform="matrix(1.167483,0,0,1.167483,90.415919,-274.426324)">
            <circle cx="695.65" cy="506.563" r="54.35"/>
        </g>
        <g transform="matrix(1.167483,0,0,1.167483,-50.159975,227.194357)">
            <circle cx="695.65" cy="506.563" r="54.35"/>
        </g>
        <g transform="matrix(1.167483,0,0,1.167483,90.415919,227.194357)">
            <circle cx="695.65" cy="506.563" r="54.35"/>
        </g>
    </g>
</svg>
